<svg width="220" height="47" viewBox="0 0 220 47" fill="none" xmlns="http://www.w3.org/2000/svg">
<path d="M18.9106 22.7021C19.3251 23.5247 19.9371 24.2495 20.7069 24.7783C21.4768 25.3072 22.3651 25.6598 23.2929 25.7577C23.3323 25.699 23.3718 25.6402 23.4113 25.5814L41.9273 -3.05176e-05H31.6823L19.3844 16.767C18.7527 17.6093 18.3776 18.6082 18.2987 19.666C18.2 20.7041 18.4171 21.7619 18.9106 22.7021Z" fill="url(#paint0_linear_2497_21730)"/>
<path d="M29.748 25.7969H47.277V1.56699L29.748 25.7969Z" fill="url(#paint1_linear_2497_21730)"/>
<path d="M4.2638 -3.05176e-05H0V46.8928H4.2638V-3.05176e-05Z" fill="url(#paint2_linear_2497_21730)"/>
<path d="M21.3783 30.6938C19.6215 30.2629 18.0225 29.4206 16.6802 28.2258C15.3379 27.0309 14.3115 25.5227 13.6995 23.8577C13.0876 22.1732 12.8902 20.3711 13.1468 18.6082C13.4034 16.8454 14.0746 15.1608 15.1405 13.7113L25.1881 0.0195618H10.3438V46.9124H47.277V39.9196H24.0235C21.4375 39.9196 18.9503 39.0186 16.9763 37.3732C15.0023 35.7279 13.66 33.4557 13.206 30.9485C14.2325 32.1629 15.5156 33.1227 16.9763 33.8083C18.4173 34.4742 19.9965 34.8268 21.5955 34.8268H47.277V31.066H24.0235C23.1352 31.0268 22.2469 30.9093 21.3783 30.6938Z" fill="url(#paint3_linear_2497_21730)"/>
<path d="M53.7305 3.60406H59.8893V27.9515H53.7305V3.60406ZM67.4891 3.60406H74.5955L66.6995 15.4154L75.1284 27.9711H67.9037L60.0077 15.9247L67.4891 3.60406Z" fill="#000F90"/>
<path d="M83.7741 27.9515H77.6152V3.60406H83.7741V27.9515Z" fill="#000F90"/>
<path d="M104.877 18.5299V3.60406H110.819V27.9515H104.995L94.7503 13.3195V27.9515H88.8086V3.60406H95.0069L104.877 18.5299Z" fill="#000F90"/>
<path d="M127.814 23.1134C128.466 23.1134 129.512 23.035 129.927 22.9175V16.5515H135.967V26.5216C134.033 27.7948 130.519 28.3629 127.657 28.3629C119.721 28.3629 114.688 23.6423 114.688 15.768C114.688 8.3443 119.859 3.17316 127.42 3.17316C130.479 3.17316 133.046 3.78037 135.02 5.0144V11.2824C133.322 9.71543 130.637 8.61852 127.834 8.61852C123.57 8.61852 121.024 11.4391 121.024 15.7484C121.004 20.2928 123.807 23.1134 127.814 23.1134Z" fill="#000F90"/>
<path d="M139.382 20.6453C141.198 21.9969 143.389 23.1525 146.153 23.1525C148.008 23.1525 149.627 22.6237 149.627 20.9783C149.627 19.5092 148.344 18.9608 145.877 18.3536C140.803 17.0804 138.889 14.7886 138.889 10.734C138.889 5.93499 142.56 3.19272 147.397 3.19272C150.338 3.19272 152.351 3.89787 154.167 4.95561V10.9494C152.272 9.38242 150.16 8.40303 147.633 8.40303C145.778 8.40303 144.87 9.22572 144.87 10.3618C144.87 11.9288 146.271 12.4185 148.877 13.0649C153.911 14.3773 155.648 16.7082 155.648 20.7824C155.648 26.0711 151.384 28.3629 146.192 28.3629C143.468 28.3629 140.981 27.6185 139.382 26.6391V20.6453Z" fill="#000F90"/>
<path d="M159.262 3.60406H165.421V22.5845H174.757V27.9515H159.262V3.60406Z" fill="#000F90"/>
<path d="M194.636 22.5845V27.9515H178.113V3.60406H194.359V8.97108H184.193V13.1628H193.431V18.4123H184.173V22.6041H194.636V22.5845Z" fill="#000F90"/>
<path d="M213.189 3.60406H219.999L211.156 19.0979V27.9515H205.036V19.0979L196.232 3.60406H203.003L208.215 13.2804L213.189 3.60406Z" fill="#000F90"/>
<path d="M61.5874 34.0041L63.6404 42.2701L65.6736 34.0041H67.3909L64.7853 44.1701H62.5349L60.6202 36.3155L58.6857 44.1701H56.4551L53.8691 34.0041H55.6457L57.6789 42.2701L59.7121 34.0041H61.5874Z" fill="#00A3FF"/>
<path d="M77.1609 42.6227V44.1701H70.8047V34.0041H77.0622V35.5515H72.5418V38.2938H76.7266V39.8021H72.5418V42.6423H77.1609V42.6227Z" fill="#00A3FF"/>
<path d="M87.4661 41.7608H82.8864L81.9981 44.1505H80.1426L84.13 33.9845H86.2817L90.2888 44.1505H88.3741L87.4661 41.7608ZM83.4194 40.3309H86.9133L85.1762 35.6495L83.4194 40.3309Z" fill="#00A3FF"/>
<path d="M93.5273 34.0041H95.2842V42.6227H99.469V44.1701H93.5471V34.0041H93.5273Z" fill="#00A3FF"/>
<path d="M105.863 44.1701H104.106V35.5515H100.869V34.0041H109.101V35.5515H105.883V44.1701H105.863Z" fill="#00A3FF"/>
<path d="M119.563 34.0041H121.32V44.1701H119.563V39.8217H114.272V44.1701H112.516V34.0041H114.272V38.2742H119.563V34.0041Z" fill="#00A3FF"/>
<path d="M132.649 44.1701H130.893V34.0433C131.544 33.9454 132.57 33.8474 133.419 33.8474C136.104 33.8474 137.584 35.0814 137.584 37.2948C137.584 39.6845 135.808 40.7814 133.439 40.7814C133.202 40.7814 132.886 40.7619 132.669 40.7423V44.1701H132.649ZM132.649 39.2536C132.807 39.2732 133.084 39.2928 133.301 39.2928C134.939 39.2928 135.808 38.666 135.808 37.2948C135.808 36.1 134.998 35.3752 133.4 35.3752C133.202 35.3752 132.886 35.3948 132.649 35.434V39.2536Z" fill="#00A3FF"/>
<path d="M146.765 41.7608H142.205L141.316 44.1505H139.461L143.448 33.9845H145.6L149.607 44.1505H147.692L146.765 41.7608ZM142.718 40.3309H146.212L144.475 35.6495L142.718 40.3309Z" fill="#00A3FF"/>
<path d="M154.583 44.1701H152.826V34.0237C153.438 33.9258 154.544 33.8278 155.373 33.8278C158.057 33.8278 159.518 35.0031 159.518 37.1381C159.518 38.6268 158.669 39.7041 157.485 40.1546L160.564 44.1505H158.452L155.728 40.5464H154.563V44.1701H154.583ZM154.583 39.1165H155.452C156.853 39.1165 157.741 38.5093 157.741 37.1969C157.741 36.0412 156.932 35.3557 155.373 35.3557C155.175 35.3557 154.761 35.3752 154.583 35.3948V39.1165Z" fill="#00A3FF"/>
<path d="M167.432 44.1701H165.675V35.5515H162.438V34.0041H170.669V35.5515H167.451V44.1701H167.432Z" fill="#00A3FF"/>
<path d="M181.013 41.5062V34.0041H182.71V44.1701H181.013L175.762 36.7268V44.1701H174.064V34.0041H175.861L181.013 41.5062Z" fill="#00A3FF"/>
<path d="M193.509 42.6227V44.1701H187.152V34.0041H193.41V35.5515H188.889V38.2938H193.074V39.8021H188.889V42.6423H193.509V42.6227Z" fill="#00A3FF"/>
<path d="M199.233 44.1701H197.477V34.0237C198.088 33.9258 199.194 33.8278 200.023 33.8278C202.708 33.8278 204.168 35.0031 204.168 37.1381C204.168 38.6268 203.32 39.7041 202.135 40.1546L205.215 44.1505H203.102L200.378 40.5464H199.214V44.1701H199.233ZM199.233 39.1165H200.102C201.503 39.1165 202.392 38.5093 202.392 37.1969C202.392 36.0412 201.582 35.3557 200.023 35.3557C199.826 35.3557 199.411 35.3752 199.233 35.3948V39.1165Z" fill="#00A3FF"/>
<path d="M207.939 41.8C208.729 42.4072 209.558 42.8381 210.643 42.8381C211.67 42.8381 212.538 42.4464 212.538 41.4278C212.538 40.4876 211.788 40.135 210.663 39.7825C208.689 39.1753 207.801 38.3917 207.801 36.6876C207.801 34.8464 209.301 33.8278 211.058 33.8278C212.163 33.8278 212.992 34.1412 213.683 34.5917V36.335C212.874 35.6886 212.104 35.3165 211.117 35.3165C210.13 35.3165 209.538 35.8453 209.538 36.6289C209.538 37.4515 210.13 37.7845 211.413 38.1959C213.407 38.8031 214.275 39.6258 214.275 41.3691C214.275 43.4062 212.657 44.3268 210.663 44.3268C209.538 44.3268 208.59 44.0134 207.939 43.5825V41.8Z" fill="#00A3FF"/>
<defs>
<linearGradient id="paint0_linear_2497_21730" x1="31.5975" y1="13.0671" x2="37.3545" y2="25.7857" gradientUnits="userSpaceOnUse">
<stop stop-color="#000F90"/>
<stop offset="0.902648" stop-color="#00A3FF"/>
</linearGradient>
<linearGradient id="paint1_linear_2497_21730" x1="39.6214" y1="13.859" x2="45.8481" y2="24.697" gradientUnits="userSpaceOnUse">
<stop stop-color="#000F90"/>
<stop offset="0.902648" stop-color="#00A3FF"/>
</linearGradient>
<linearGradient id="paint2_linear_2497_21730" x1="2.40162" y1="23.789" x2="8.2261" y2="25.0632" gradientUnits="userSpaceOnUse">
<stop stop-color="#000F90"/>
<stop offset="0.902648" stop-color="#00A3FF"/>
</linearGradient>
<linearGradient id="paint3_linear_2497_21730" x1="31.1467" y1="23.8086" x2="42.6624" y2="45.6302" gradientUnits="userSpaceOnUse">
<stop stop-color="#000F90"/>
<stop offset="0.902648" stop-color="#00A3FF"/>
</linearGradient>
</defs>
</svg>
